<mxfile host="Electron" modified="2023-04-27T14:24:05.850Z" agent="Mozilla/5.0 (Windows NT 10.0; Win64; x64) AppleWebKit/537.36 (KHTML, like Gecko) draw.io/21.2.1 Chrome/112.0.5615.87 Electron/24.1.2 Safari/537.36" etag="iE3j06msg3w8bkERZ8Ef" version="21.2.1" type="device">
  <diagram name="Seite-1" id="H4dnET5y3kq9Uj_0xYnW">
    <mxGraphModel dx="1176" dy="679" grid="1" gridSize="10" guides="1" tooltips="1" connect="1" arrows="1" fold="1" page="1" pageScale="1" pageWidth="827" pageHeight="1169" math="0" shadow="0">
      <root>
        <mxCell id="0" />
        <mxCell id="1" parent="0" />
        <mxCell id="x4HQOs81i4ZzoBwpDJL2-1" value="Beastopia - Pause Menu" style="strokeWidth=1;shadow=0;dashed=0;align=center;html=1;shape=mxgraph.mockup.containers.window;align=left;verticalAlign=top;spacingLeft=8;strokeColor2=#008cff;strokeColor3=#c4c4c4;fontColor=#666666;mainText=;fontSize=17;labelBackgroundColor=none;whiteSpace=wrap;" parent="1" vertex="1">
          <mxGeometry x="82" y="40" width="663" height="500" as="geometry" />
        </mxCell>
        <mxCell id="x4HQOs81i4ZzoBwpDJL2-2" value="" style="verticalLabelPosition=bottom;shadow=0;dashed=0;align=center;html=1;verticalAlign=top;strokeWidth=1;shape=mxgraph.mockup.graphics.simpleIcon;strokeColor=#999999;" parent="1" vertex="1">
          <mxGeometry x="82" y="71" width="663" height="469" as="geometry" />
        </mxCell>
        <mxCell id="x4HQOs81i4ZzoBwpDJL2-3" value="" style="rounded=1;whiteSpace=wrap;html=1;arcSize=7;strokeColor=#666666;" parent="1" vertex="1">
          <mxGeometry x="152" y="115.13" width="180" height="94.87" as="geometry" />
        </mxCell>
        <mxCell id="x4HQOs81i4ZzoBwpDJL2-4" value="&lt;p style=&quot;line-height: 20%;&quot;&gt;&lt;br&gt;&lt;/p&gt;" style="strokeWidth=1;shadow=0;dashed=0;align=center;html=1;shape=mxgraph.mockup.text.textBox;fontColor=#666666;align=left;fontSize=17;spacingLeft=4;spacingTop=-3;whiteSpace=wrap;strokeColor=#666666;mainText=" parent="1" vertex="1">
          <mxGeometry x="493" y="145.13" width="210" height="320.25" as="geometry" />
        </mxCell>
        <mxCell id="x4HQOs81i4ZzoBwpDJL2-5" value="" style="verticalLabelPosition=bottom;shadow=0;dashed=0;align=center;html=1;verticalAlign=top;strokeWidth=1;shape=mxgraph.mockup.navigation.scrollBar;strokeColor=#999999;barPos=100;fillColor2=#99ddff;strokeColor2=none;direction=north;" parent="1" vertex="1">
          <mxGeometry x="683" y="174.88" width="20" height="250" as="geometry" />
        </mxCell>
        <mxCell id="x4HQOs81i4ZzoBwpDJL2-6" value="&lt;font style=&quot;font-size: 14px;&quot;&gt;Search User...&lt;/font&gt;" style="strokeWidth=1;shadow=0;dashed=0;align=center;html=1;shape=mxgraph.mockup.forms.searchBox;strokeColor=#999999;mainText=;strokeColor2=#008cff;fontColor=#666666;fontSize=17;align=left;spacingLeft=3;whiteSpace=wrap;" parent="1" vertex="1">
          <mxGeometry x="493" y="145.63" width="209" height="30" as="geometry" />
        </mxCell>
        <mxCell id="x4HQOs81i4ZzoBwpDJL2-7" value="" style="strokeWidth=1;shadow=0;dashed=0;align=center;html=1;shape=mxgraph.mockup.text.textBox;fontColor=#666666;align=left;fontSize=17;spacingLeft=4;spacingTop=-3;strokeColor=#666666;mainText=;whiteSpace=wrap;" parent="1" vertex="1">
          <mxGeometry x="493" y="115.13" width="210" height="30" as="geometry" />
        </mxCell>
        <mxCell id="x4HQOs81i4ZzoBwpDJL2-8" value="" style="rounded=0;whiteSpace=wrap;html=1;strokeColor=#666666;" parent="1" vertex="1">
          <mxGeometry x="493" y="175.63" width="190" height="60" as="geometry" />
        </mxCell>
        <mxCell id="x4HQOs81i4ZzoBwpDJL2-9" value="&lt;p style=&quot;line-height: 120%;&quot;&gt;&lt;span style=&quot;font-size: 14px;&quot;&gt;Bob&lt;/span&gt;&lt;/p&gt;" style="text;html=1;strokeColor=none;fillColor=none;align=left;verticalAlign=middle;whiteSpace=wrap;rounded=0;" parent="1" vertex="1">
          <mxGeometry x="556" y="184.63" width="98" height="12.5" as="geometry" />
        </mxCell>
        <mxCell id="x4HQOs81i4ZzoBwpDJL2-10" value="" style="html=1;verticalLabelPosition=bottom;align=center;labelBackgroundColor=#ffffff;verticalAlign=top;strokeWidth=2;shadow=0;dashed=0;shape=mxgraph.ios7.icons.mail;fillColor=#fff2cc;strokeColor=#d6b656;" parent="1" vertex="1">
          <mxGeometry x="594" y="208.13" width="20" height="15" as="geometry" />
        </mxCell>
        <mxCell id="x4HQOs81i4ZzoBwpDJL2-11" value="" style="verticalLabelPosition=bottom;shadow=0;dashed=0;align=center;html=1;verticalAlign=top;strokeWidth=1;shape=mxgraph.mockup.containers.userMale;strokeColor=#666666;strokeColor2=#008cff;" parent="1" vertex="1">
          <mxGeometry x="501" y="184.63" width="44" height="42" as="geometry" />
        </mxCell>
        <mxCell id="x4HQOs81i4ZzoBwpDJL2-12" value="" style="ellipse;whiteSpace=wrap;html=1;aspect=fixed;fillColor=#60a917;fontColor=#ffffff;strokeColor=#2D7600;" parent="1" vertex="1">
          <mxGeometry x="535" y="216.63" width="10" height="10" as="geometry" />
        </mxCell>
        <mxCell id="x4HQOs81i4ZzoBwpDJL2-13" value="" style="html=1;verticalLabelPosition=bottom;align=center;labelBackgroundColor=#ffffff;verticalAlign=top;strokeWidth=2;strokeColor=#B20000;shadow=0;dashed=0;shape=mxgraph.ios7.icons.delete;fillColor=#FF9999;fontColor=#ffffff;" parent="1" vertex="1">
          <mxGeometry x="559" y="205.63" width="20" height="20" as="geometry" />
        </mxCell>
        <mxCell id="x4HQOs81i4ZzoBwpDJL2-14" value="" style="strokeWidth=1;shadow=0;dashed=0;align=center;html=1;shape=mxgraph.mockup.text.textBox;fontColor=#666666;align=left;fontSize=17;spacingLeft=4;spacingTop=-3;whiteSpace=wrap;strokeColor=#666666;mainText=" parent="1" vertex="1">
          <mxGeometry x="493" y="424.88" width="210" height="40" as="geometry" />
        </mxCell>
        <mxCell id="x4HQOs81i4ZzoBwpDJL2-15" value="Friend List" style="text;html=1;strokeColor=none;fillColor=none;align=center;verticalAlign=middle;whiteSpace=wrap;rounded=0;fontSize=16;" parent="1" vertex="1">
          <mxGeometry x="525.5" y="114.63" width="144" height="30" as="geometry" />
        </mxCell>
        <mxCell id="x4HQOs81i4ZzoBwpDJL2-16" value="Show Chats" style="text;html=1;strokeColor=none;fillColor=none;align=center;verticalAlign=middle;whiteSpace=wrap;rounded=0;fontSize=16;" parent="1" vertex="1">
          <mxGeometry x="526" y="429.88" width="144" height="30" as="geometry" />
        </mxCell>
        <mxCell id="x4HQOs81i4ZzoBwpDJL2-17" value="" style="rounded=0;whiteSpace=wrap;html=1;strokeColor=#666666;" parent="1" vertex="1">
          <mxGeometry x="493" y="235.63" width="190" height="60" as="geometry" />
        </mxCell>
        <mxCell id="x4HQOs81i4ZzoBwpDJL2-18" value="&lt;p style=&quot;line-height: 120%;&quot;&gt;&lt;span style=&quot;font-size: 14px;&quot;&gt;AnotherUser&lt;/span&gt;&lt;/p&gt;" style="text;html=1;strokeColor=none;fillColor=none;align=left;verticalAlign=middle;whiteSpace=wrap;rounded=0;" parent="1" vertex="1">
          <mxGeometry x="556" y="244.63" width="98" height="12.5" as="geometry" />
        </mxCell>
        <mxCell id="x4HQOs81i4ZzoBwpDJL2-19" value="" style="html=1;verticalLabelPosition=bottom;align=center;labelBackgroundColor=#ffffff;verticalAlign=top;strokeWidth=2;shadow=0;dashed=0;shape=mxgraph.ios7.icons.mail;fillColor=#fff2cc;strokeColor=#d6b656;" parent="1" vertex="1">
          <mxGeometry x="594" y="268.13" width="20" height="15" as="geometry" />
        </mxCell>
        <mxCell id="x4HQOs81i4ZzoBwpDJL2-20" value="" style="verticalLabelPosition=bottom;shadow=0;dashed=0;align=center;html=1;verticalAlign=top;strokeWidth=1;shape=mxgraph.mockup.containers.userMale;strokeColor=#666666;strokeColor2=#008cff;" parent="1" vertex="1">
          <mxGeometry x="501" y="244.63" width="44" height="42" as="geometry" />
        </mxCell>
        <mxCell id="x4HQOs81i4ZzoBwpDJL2-21" value="" style="ellipse;whiteSpace=wrap;html=1;aspect=fixed;fillColor=#60a917;fontColor=#ffffff;strokeColor=#2D7600;" parent="1" vertex="1">
          <mxGeometry x="535" y="276.63" width="10" height="10" as="geometry" />
        </mxCell>
        <mxCell id="x4HQOs81i4ZzoBwpDJL2-22" value="" style="html=1;verticalLabelPosition=bottom;align=center;labelBackgroundColor=#ffffff;verticalAlign=top;strokeWidth=2;strokeColor=#B20000;shadow=0;dashed=0;shape=mxgraph.ios7.icons.delete;fillColor=#FF9999;fontColor=#ffffff;" parent="1" vertex="1">
          <mxGeometry x="559" y="265.63" width="20" height="20" as="geometry" />
        </mxCell>
        <mxCell id="x4HQOs81i4ZzoBwpDJL2-23" value="" style="rounded=1;whiteSpace=wrap;html=1;" parent="1" vertex="1">
          <mxGeometry x="172" y="124.63" width="140" height="29.37" as="geometry" />
        </mxCell>
        <mxCell id="x4HQOs81i4ZzoBwpDJL2-24" value="Edit profile" style="text;html=1;strokeColor=none;fillColor=none;align=center;verticalAlign=middle;whiteSpace=wrap;rounded=0;" parent="1" vertex="1">
          <mxGeometry x="202" y="124" width="100" height="30" as="geometry" />
        </mxCell>
        <mxCell id="x4HQOs81i4ZzoBwpDJL2-25" value="" style="html=1;verticalLabelPosition=bottom;align=center;labelBackgroundColor=#ffffff;verticalAlign=top;strokeWidth=2;strokeColor=#0080F0;shadow=0;dashed=0;shape=mxgraph.ios7.icons.edit;" parent="1" vertex="1">
          <mxGeometry x="182" y="132.12" width="14" height="14.38" as="geometry" />
        </mxCell>
        <mxCell id="x4HQOs81i4ZzoBwpDJL2-26" value="" style="sketch=0;pointerEvents=1;shadow=0;dashed=0;html=1;labelPosition=center;verticalLabelPosition=bottom;verticalAlign=top;outlineConnect=0;align=center;shape=mxgraph.office.concepts.pin;fillColor=#000000;" parent="1" vertex="1">
          <mxGeometry x="632" y="208.13" width="12.5" height="16" as="geometry" />
        </mxCell>
        <mxCell id="x4HQOs81i4ZzoBwpDJL2-27" value="" style="sketch=0;pointerEvents=1;shadow=0;dashed=0;html=1;labelPosition=center;verticalLabelPosition=bottom;verticalAlign=top;outlineConnect=0;align=center;shape=mxgraph.office.concepts.pin;" parent="1" vertex="1">
          <mxGeometry x="632" y="267.63" width="12.5" height="16" as="geometry" />
        </mxCell>
        <mxCell id="jmZ469wgMTGkXS_ZTJqA-1" value="" style="rounded=1;whiteSpace=wrap;html=1;" vertex="1" parent="1">
          <mxGeometry x="172" y="167.76" width="140" height="29.37" as="geometry" />
        </mxCell>
        <mxCell id="jmZ469wgMTGkXS_ZTJqA-2" value="Back to Main Menu" style="text;html=1;strokeColor=none;fillColor=none;align=center;verticalAlign=middle;whiteSpace=wrap;rounded=0;" vertex="1" parent="1">
          <mxGeometry x="202" y="167.76" width="110" height="30" as="geometry" />
        </mxCell>
        <mxCell id="jmZ469wgMTGkXS_ZTJqA-5" value="" style="html=1;verticalLabelPosition=bottom;align=center;labelBackgroundColor=#ffffff;verticalAlign=top;strokeWidth=2;strokeColor=#0080F0;shadow=0;dashed=0;shape=mxgraph.ios7.icons.back;" vertex="1" parent="1">
          <mxGeometry x="182" y="174.88" width="14" height="14" as="geometry" />
        </mxCell>
      </root>
    </mxGraphModel>
  </diagram>
</mxfile>
